<svg version="1" xmlns="//www.w3.org/2000/svg" width="933.333" height="933.333" viewBox="0 0 700.000000 700.000000"><path d="M472.5 154.6c-4.4.7-10.9 1.5-14.5 1.9-3.5.3-6.7.8-7 1-.3.1-3.4.6-7 1-3.6.3-7.6.8-9 1-4.7.7-11 1.5-15.2 2-2.4.3-5.4.7-6.8 1-1.4.2-4.9.7-7.9 1-3 .4-6.2.8-7.1 1-.9.2-4.1.6-7.1.9-3 .4-6.9.8-8.7 1.1-1.8.2-6.9.9-11.5 1.5-4.5.6-9.5 1.2-11.2 1.5-1.6.2-5.2.7-8 1-2.7.3-6.1.8-7.5 1-1.4.3-4.5.7-7 1-4.1.4-7.4.9-15 2-1.4.2-4.7.7-7.5 1-2.7.3-6.1.7-7.5 1-1.4.2-5 .6-8 1s-6.6.8-8 1c-2.7.4-7.9 1.1-15 2-2.5.3-5.6.8-7 1-1.4.3-5.2.7-8.5 1-3.3.3-6.7.8-7.5 1-.8.2-4 .7-7 1-3 .3-8.2 1-11.5 1.5-3.3.5-8 1.2-10.5 1.5-2.5.3-5.4.8-6.5 1-1.1.2-2.5.4-3 .4-.8.1-1.1 15.9-1 49.3v49.3l2.5-.1c1.4-.1 4.6-.4 7.3-.8 2.6-.3 6.8-.8 9.5-1.1 12.3-1.5 33.9-4 41.2-5 1.9-.2 6-.7 9-1 3-.3 6.6-.8 8-1 1.4-.2 5.4-.7 9-1.1 3.6-.3 7.3-.8 8.2-.9.9-.2 4.5-.6 8-1 3.5-.3 7.4-.8 8.8-1 1.4-.2 4.8-.6 7.5-.9 2.8-.3 7.2-.9 9.9-1.2 3.9-.5 4.7-.3 4 .8-.7 1.2-5.6 8.1-21.2 30.3-5.6 7.9-54.7 78-60.7 86.5-2.1 3-9.2 13.1-15.8 22.5-6.6 9.3-14.1 19.9-16.6 23.5-2.5 3.6-8.5 12.1-13.3 19l-8.8 12.5V549.2l6.8-.7c3.7-.3 8.1-.8 9.7-1 1.7-.2 6.2-.7 10-1.1 3.9-.3 8.1-.7 9.5-.9 1.4-.2 5.9-.6 10-.9 4.1-.4 8.6-.9 10-1.1 1.4-.2 5.9-.6 10-1 4.1-.3 8.6-.8 10-1 1.4-.2 5.7-.7 9.5-1 3.9-.3 12.6-1.2 19.5-2 12.6-1.4 19.1-2 29.8-3 3.1-.3 7.5-.8 9.7-1 2.2-.2 6.5-.7 9.5-1 3-.3 7.5-.8 10-1 2.5-.3 7.2-.7 10.5-1 3.3-.3 7.6-.8 9.5-1 1.9-.3 6.6-.7 10.3-1 3.7-.4 7.6-.8 8.6-1 1-.2 5.4-.6 9.7-.9 4.3-.4 9.3-.9 10.9-1.1 1.7-.2 6.2-.7 10-1 3.9-.3 8.4-.8 10-1 1.7-.3 5.7-.7 9-1 7.8-.7 13.7-1.3 20.5-2.1 3-.4 6.4-.7 7.5-.8 2-.1 2-.8 2.1-50.9l.1-50.9-5.6.6c-3.1.4-7.2.8-9.1 1-1.9.3-6.2.7-9.5 1.1-3.3.3-7.1.8-8.5 1-1.4.2-5.4.6-9 .9-3.6.4-7.5.8-8.5 1-1.1.2-5.6.7-10 1-4.4.4-8.7.9-9.5 1.1-.8.2-4.6.7-8.5 1-3.8.3-7.9.8-9 1-1.9.4-7.7 1-18 2-8.3.8-15.2 1.5-17.2 1.9-1.1.2-5.3.7-9.4 1-4.1.4-10 1-13.1 1.5-3.2.4-5.8.4-5.8 0 0-.7 27.4-39.9 36.6-52.4.8-1.1 18.8-26.5 40.1-56.5s44.1-62.2 50.7-71.5l12.1-17 .1-41c.1-22.6-.1-41.5-.5-42-.4-.7-3.2-.6-8.6.1z"/></svg>
